<?xml version="1.0" encoding="iso-8859-1"?>
<!-- Generator: Adobe Illustrator 16.0.0, SVG Export Plug-In . SVG Version: 6.00 Build 0)  -->
<!DOCTYPE svg PUBLIC "-//W3C//DTD SVG 1.1//EN" "http://www.w3.org/Graphics/SVG/1.1/DTD/svg11.dtd">
<svg version="1.1" id="Capa_1" xmlns="http://www.w3.org/2000/svg" xmlns:xlink="http://www.w3.org/1999/xlink" x="0px" y="0px"
	 width="471.023px" height="471.023px" viewBox="0 0 471.023 471.023" style="enable-background:new 0 0 471.023 471.023;"
	 xml:space="preserve">
<g>
	<g>
		<path d="M297.662,355.887c-2.737-3.911-5.082-9.108-5.667-19.672c14.92,3.241,51.228,9.585,36.264-9.322
			c-7.782-9.834-9.024-21.383-7.883-31.521c44.482-65.692,113.939-196.473,13.846-258.938
			c-144.572-90.225-187.618,22.57-187.618,22.57C33.599,182.85,110.84,264.541,159.073,298.841
			c1.028,8.44-0.315,18.414-7.947,28.052c-15.723,19.865,25.17,11.854,38.375,8.857c-0.403,7.77-1.743,12.739-3.535,16.41
			C121.8,365.172,16.571,396.854,0,469.573h235.511h235.513C444.069,403.014,358.006,370.843,297.662,355.887z M188.275,278.856
			c-1.311-1.303-2.607-2.617-3.896-3.928c-6.54-6.628-12.771-13.232-18.288-19.296c-1.288-7.245,0.235-10.251,7.125-4.3
			c23.882,20.606,27.423,7.851,27.423,7.851c-13.267-22.566-24.77-98.126,17.695-124.621c42.459-26.495,47.765-57.897,47.765-57.897
			c59.674,29.753,55.611,119.846,43.517,185.239c-3.96,4.225-8.175,8.624-12.516,13.024c-1.286,1.311-2.572,2.625-3.891,3.928
			c-1.318,1.318-2.653,2.62-3.979,3.923c-19.741,19.344-40.118,36.632-48.49,36.632c-8.361,0-28.741-17.288-48.483-36.632
			C190.928,281.477,189.594,280.175,188.275,278.856z M240.748,430.97c-39.134,0-70.983-18.045-70.983-40.23
			c0-7.186,3.565-14.307,10.307-20.614l0.87-0.813c1.641-1.467,3.497-2.89,5.49-4.239l1.176-1.198
			c2.817-3.547,5.676-7.142,7.574-13.514c2.787-9.354,3.488-24.777-0.948-54.737c17.418,16.406,36.325,31.646,46.498,31.646
			c10.171,0,29.086-15.24,46.502-31.646c-4.938,33.362-3.486,48.687,0.177,57.827c1.871,4.677,4.315,7.751,6.765,10.832l0.865,0.806
			c2.023,1.37,3.896,2.813,5.551,4.292l0.821,0.757c6.736,6.312,10.303,13.434,10.303,20.619
			C311.724,412.925,279.885,430.97,240.748,430.97z"/>
	</g>
</g>
<g>
</g>
<g>
</g>
<g>
</g>
<g>
</g>
<g>
</g>
<g>
</g>
<g>
</g>
<g>
</g>
<g>
</g>
<g>
</g>
<g>
</g>
<g>
</g>
<g>
</g>
<g>
</g>
<g>
</g>
</svg>
